<mxfile host="www.draw.io" modified="2020-02-07T12:24:07.395Z" agent="Mozilla/5.0 (Macintosh; Intel Mac OS X 10_14_2) AppleWebKit/537.36 (KHTML, like Gecko) Chrome/79.0.3945.130 Safari/537.36" etag="vnVhvtFM8BJwaZHRC0By" version="12.6.6" type="github">
  <diagram id="E8VWyrnDabmsOFFXzIdR" name="Page-1">
    <mxGraphModel dx="2239" dy="1862" grid="1" gridSize="10" guides="1" tooltips="1" connect="1" arrows="1" fold="1" page="1" pageScale="1" pageWidth="827" pageHeight="1169" math="0" shadow="0">
      <root>
        <mxCell id="0"/>
        <mxCell id="1" parent="0"/>
        <mxCell id="G1gDlCIY-DG2FSS1MBPs-1" style="edgeStyle=orthogonalEdgeStyle;rounded=0;orthogonalLoop=1;jettySize=auto;html=1;entryX=0;entryY=0.7;entryDx=0;entryDy=0;startArrow=none;startFill=0;exitX=0.5;exitY=1;exitDx=0;exitDy=0;" parent="1" source="G1gDlCIY-DG2FSS1MBPs-52" edge="1">
          <mxGeometry relative="1" as="geometry">
            <Array as="points">
              <mxPoint x="115" y="364"/>
            </Array>
            <mxPoint x="160" y="120" as="sourcePoint"/>
            <mxPoint x="280" y="363.8499999999999" as="targetPoint"/>
          </mxGeometry>
        </mxCell>
        <mxCell id="G1gDlCIY-DG2FSS1MBPs-3" style="edgeStyle=orthogonalEdgeStyle;rounded=0;orthogonalLoop=1;jettySize=auto;html=1;entryX=0;entryY=0.5;entryDx=0;entryDy=0;startArrow=none;startFill=0;" parent="1" source="G1gDlCIY-DG2FSS1MBPs-4" edge="1">
          <mxGeometry relative="1" as="geometry">
            <Array as="points">
              <mxPoint x="-45" y="510"/>
            </Array>
            <mxPoint x="170" y="510" as="targetPoint"/>
          </mxGeometry>
        </mxCell>
        <mxCell id="G1gDlCIY-DG2FSS1MBPs-77" style="edgeStyle=orthogonalEdgeStyle;rounded=0;orthogonalLoop=1;jettySize=auto;html=1;entryX=0;entryY=0.5;entryDx=0;entryDy=0;" parent="1" source="G1gDlCIY-DG2FSS1MBPs-4" target="G1gDlCIY-DG2FSS1MBPs-52" edge="1">
          <mxGeometry relative="1" as="geometry"/>
        </mxCell>
        <mxCell id="G1gDlCIY-DG2FSS1MBPs-4" value="営業" style="shape=umlActor;verticalLabelPosition=bottom;labelBackgroundColor=#ffffff;verticalAlign=top;html=1;outlineConnect=0;" parent="1" vertex="1">
          <mxGeometry x="-60" y="50" width="30" height="60" as="geometry"/>
        </mxCell>
        <mxCell id="G1gDlCIY-DG2FSS1MBPs-5" style="edgeStyle=orthogonalEdgeStyle;rounded=0;orthogonalLoop=1;jettySize=auto;html=1;entryX=0.469;entryY=0.008;entryDx=0;entryDy=0;entryPerimeter=0;exitX=0.5;exitY=1;exitDx=0;exitDy=0;" parent="1" source="G1gDlCIY-DG2FSS1MBPs-58" target="G1gDlCIY-DG2FSS1MBPs-62" edge="1">
          <mxGeometry relative="1" as="geometry">
            <mxPoint x="480" y="110" as="sourcePoint"/>
            <mxPoint x="480" y="210" as="targetPoint"/>
          </mxGeometry>
        </mxCell>
        <mxCell id="G1gDlCIY-DG2FSS1MBPs-6" style="edgeStyle=orthogonalEdgeStyle;rounded=0;orthogonalLoop=1;jettySize=auto;html=1;startArrow=none;startFill=0;exitX=0;exitY=1;exitDx=0;exitDy=0;" parent="1" source="G1gDlCIY-DG2FSS1MBPs-58" edge="1">
          <mxGeometry relative="1" as="geometry">
            <mxPoint x="420" y="80" as="sourcePoint"/>
            <mxPoint x="335" y="280" as="targetPoint"/>
            <Array as="points">
              <mxPoint x="420" y="60"/>
              <mxPoint x="420" y="120"/>
              <mxPoint x="335" y="120"/>
            </Array>
          </mxGeometry>
        </mxCell>
        <mxCell id="G1gDlCIY-DG2FSS1MBPs-8" value="クロール対象の&lt;br&gt;メディアを&lt;br&gt;取得" style="text;html=1;align=center;verticalAlign=middle;resizable=0;points=[];autosize=1;" parent="1" vertex="1">
          <mxGeometry x="314" y="60" width="100" height="50" as="geometry"/>
        </mxCell>
        <mxCell id="G1gDlCIY-DG2FSS1MBPs-9" value="メディア" style="ellipse;shape=cloud;whiteSpace=wrap;html=1;" parent="1" vertex="1">
          <mxGeometry x="1092" y="-90" width="120" height="80" as="geometry"/>
        </mxCell>
        <mxCell id="G1gDlCIY-DG2FSS1MBPs-11" style="edgeStyle=orthogonalEdgeStyle;rounded=0;orthogonalLoop=1;jettySize=auto;html=1;entryX=-0.031;entryY=0.527;entryDx=0;entryDy=0;startArrow=none;startFill=0;entryPerimeter=0;exitX=1;exitY=0.451;exitDx=0;exitDy=0;exitPerimeter=0;" parent="1" source="G1gDlCIY-DG2FSS1MBPs-107" target="G1gDlCIY-DG2FSS1MBPs-105" edge="1">
          <mxGeometry relative="1" as="geometry">
            <Array as="points"/>
            <mxPoint x="320" y="510" as="sourcePoint"/>
            <mxPoint x="510" y="510" as="targetPoint"/>
          </mxGeometry>
        </mxCell>
        <mxCell id="G1gDlCIY-DG2FSS1MBPs-13" value="GUIで見れるようにする" style="text;html=1;align=center;verticalAlign=middle;resizable=0;points=[];autosize=1;" parent="1" vertex="1">
          <mxGeometry x="-10" y="480" width="140" height="20" as="geometry"/>
        </mxCell>
        <mxCell id="G1gDlCIY-DG2FSS1MBPs-16" style="edgeStyle=orthogonalEdgeStyle;rounded=0;orthogonalLoop=1;jettySize=auto;html=1;entryX=0;entryY=0.5;entryDx=0;entryDy=0;startArrow=none;startFill=0;" parent="1" target="G1gDlCIY-DG2FSS1MBPs-97" edge="1">
          <mxGeometry relative="1" as="geometry">
            <mxPoint x="900" y="309.5" as="sourcePoint"/>
          </mxGeometry>
        </mxCell>
        <mxCell id="G1gDlCIY-DG2FSS1MBPs-17" style="edgeStyle=orthogonalEdgeStyle;rounded=0;orthogonalLoop=1;jettySize=auto;html=1;startArrow=none;startFill=0;" parent="1" edge="1">
          <mxGeometry relative="1" as="geometry">
            <Array as="points">
              <mxPoint x="840" y="510"/>
            </Array>
            <mxPoint x="840" y="339.5" as="sourcePoint"/>
            <mxPoint x="630" y="510" as="targetPoint"/>
          </mxGeometry>
        </mxCell>
        <mxCell id="G1gDlCIY-DG2FSS1MBPs-20" style="edgeStyle=orthogonalEdgeStyle;rounded=0;orthogonalLoop=1;jettySize=auto;html=1;entryX=1;entryY=0.7;entryDx=0;entryDy=0;startArrow=none;startFill=0;" parent="1" edge="1">
          <mxGeometry relative="1" as="geometry">
            <Array as="points">
              <mxPoint x="790" y="364"/>
            </Array>
            <mxPoint x="790" y="339.5" as="sourcePoint"/>
            <mxPoint x="390" y="363.8499999999999" as="targetPoint"/>
          </mxGeometry>
        </mxCell>
        <mxCell id="G1gDlCIY-DG2FSS1MBPs-68" style="edgeStyle=orthogonalEdgeStyle;rounded=0;orthogonalLoop=1;jettySize=auto;html=1;entryX=1;entryY=0.5;entryDx=0;entryDy=0;" parent="1" target="G1gDlCIY-DG2FSS1MBPs-62" edge="1">
          <mxGeometry relative="1" as="geometry">
            <mxPoint x="780" y="309.5" as="sourcePoint"/>
            <Array as="points">
              <mxPoint x="630" y="310"/>
              <mxPoint x="630" y="251"/>
            </Array>
          </mxGeometry>
        </mxCell>
        <mxCell id="G1gDlCIY-DG2FSS1MBPs-26" value="キューを登録する&lt;br&gt;(トップドメインの&lt;br&gt;URL)" style="text;html=1;align=center;verticalAlign=middle;resizable=0;points=[];autosize=1;" parent="1" vertex="1">
          <mxGeometry x="370" y="136" width="110" height="50" as="geometry"/>
        </mxCell>
        <mxCell id="G1gDlCIY-DG2FSS1MBPs-27" style="edgeStyle=orthogonalEdgeStyle;rounded=0;orthogonalLoop=1;jettySize=auto;html=1;entryX=0;entryY=0.5;entryDx=0;entryDy=0;startArrow=none;startFill=0;" parent="1" target="G1gDlCIY-DG2FSS1MBPs-97" edge="1">
          <mxGeometry relative="1" as="geometry">
            <mxPoint x="900" y="190.5" as="sourcePoint"/>
          </mxGeometry>
        </mxCell>
        <mxCell id="G1gDlCIY-DG2FSS1MBPs-67" style="edgeStyle=orthogonalEdgeStyle;rounded=0;orthogonalLoop=1;jettySize=auto;html=1;entryX=1;entryY=0.5;entryDx=0;entryDy=0;" parent="1" target="G1gDlCIY-DG2FSS1MBPs-62" edge="1">
          <mxGeometry relative="1" as="geometry">
            <mxPoint x="780" y="190.5" as="sourcePoint"/>
            <Array as="points">
              <mxPoint x="630" y="191"/>
              <mxPoint x="630" y="251"/>
            </Array>
          </mxGeometry>
        </mxCell>
        <mxCell id="G1gDlCIY-DG2FSS1MBPs-76" style="edgeStyle=orthogonalEdgeStyle;rounded=0;orthogonalLoop=1;jettySize=auto;html=1;" parent="1" edge="1">
          <mxGeometry relative="1" as="geometry">
            <mxPoint x="840" y="160.5" as="sourcePoint"/>
            <mxPoint x="840" y="80" as="targetPoint"/>
          </mxGeometry>
        </mxCell>
        <mxCell id="G1gDlCIY-DG2FSS1MBPs-30" style="edgeStyle=orthogonalEdgeStyle;rounded=0;orthogonalLoop=1;jettySize=auto;html=1;entryX=0;entryY=0.5;entryDx=0;entryDy=0;startArrow=none;startFill=0;" parent="1" target="G1gDlCIY-DG2FSS1MBPs-97" edge="1">
          <mxGeometry relative="1" as="geometry">
            <mxPoint x="900" y="250.5" as="sourcePoint"/>
          </mxGeometry>
        </mxCell>
        <mxCell id="G1gDlCIY-DG2FSS1MBPs-65" style="edgeStyle=orthogonalEdgeStyle;rounded=0;orthogonalLoop=1;jettySize=auto;html=1;entryX=1;entryY=0.5;entryDx=0;entryDy=0;" parent="1" target="G1gDlCIY-DG2FSS1MBPs-62" edge="1">
          <mxGeometry relative="1" as="geometry">
            <mxPoint x="780" y="250.5" as="sourcePoint"/>
          </mxGeometry>
        </mxCell>
        <mxCell id="G1gDlCIY-DG2FSS1MBPs-33" value="キューを取る" style="text;html=1;align=center;verticalAlign=middle;resizable=0;points=[];autosize=1;" parent="1" vertex="1">
          <mxGeometry x="675" y="160.5" width="90" height="20" as="geometry"/>
        </mxCell>
        <mxCell id="G1gDlCIY-DG2FSS1MBPs-34" value="キューを登録する&lt;br&gt;（クロール対象URL）" style="text;html=1;align=center;verticalAlign=middle;resizable=0;points=[];autosize=1;" parent="1" vertex="1">
          <mxGeometry x="645" y="215.5" width="140" height="30" as="geometry"/>
        </mxCell>
        <mxCell id="G1gDlCIY-DG2FSS1MBPs-39" value="そのメディアを&lt;br&gt;何回クロールしたか&lt;br&gt;保存する" style="text;html=1;align=center;verticalAlign=middle;resizable=0;points=[];autosize=1;" parent="1" vertex="1">
          <mxGeometry x="720" y="82" width="120" height="50" as="geometry"/>
        </mxCell>
        <mxCell id="G1gDlCIY-DG2FSS1MBPs-40" value="キューのURLを&lt;br&gt;クローリング" style="text;html=1;align=center;verticalAlign=middle;resizable=0;points=[];autosize=1;" parent="1" vertex="1">
          <mxGeometry x="910" y="155.5" width="100" height="30" as="geometry"/>
        </mxCell>
        <mxCell id="G1gDlCIY-DG2FSS1MBPs-41" value="BogQueryAPIで書き込む" style="text;html=1;align=center;verticalAlign=middle;resizable=0;points=[];autosize=1;" parent="1" vertex="1">
          <mxGeometry x="660" y="480" width="150" height="20" as="geometry"/>
        </mxCell>
        <mxCell id="G1gDlCIY-DG2FSS1MBPs-44" value="クロールしたい&lt;br&gt;メディアのドメインを&lt;br&gt;登録する" style="text;html=1;align=center;verticalAlign=middle;resizable=0;points=[];autosize=1;" parent="1" vertex="1">
          <mxGeometry x="135" y="160.5" width="130" height="50" as="geometry"/>
        </mxCell>
        <mxCell id="G1gDlCIY-DG2FSS1MBPs-45" value="クロールしたい&lt;br&gt;ASPのドメインを&lt;br&gt;登録する" style="text;html=1;align=center;verticalAlign=middle;resizable=0;points=[];autosize=1;" parent="1" vertex="1">
          <mxGeometry x="145" y="314.75" width="110" height="50" as="geometry"/>
        </mxCell>
        <mxCell id="G1gDlCIY-DG2FSS1MBPs-47" value="登録する" style="text;html=1;align=center;verticalAlign=middle;resizable=0;points=[];autosize=1;" parent="1" vertex="1">
          <mxGeometry x="-22" y="58" width="60" height="20" as="geometry"/>
        </mxCell>
        <mxCell id="G1gDlCIY-DG2FSS1MBPs-48" value="次回のクロールに活かせるように&lt;br&gt;クロール情報を保存する" style="text;html=1;align=center;verticalAlign=middle;resizable=0;points=[];autosize=1;" parent="1" vertex="1">
          <mxGeometry x="450" y="324.75" width="190" height="30" as="geometry"/>
        </mxCell>
        <mxCell id="G1gDlCIY-DG2FSS1MBPs-69" style="edgeStyle=orthogonalEdgeStyle;rounded=0;orthogonalLoop=1;jettySize=auto;html=1;entryX=0;entryY=0.5;entryDx=0;entryDy=0;" parent="1" source="G1gDlCIY-DG2FSS1MBPs-52" target="G1gDlCIY-DG2FSS1MBPs-58" edge="1">
          <mxGeometry relative="1" as="geometry">
            <Array as="points">
              <mxPoint x="115" y="30"/>
            </Array>
          </mxGeometry>
        </mxCell>
        <mxCell id="G1gDlCIY-DG2FSS1MBPs-78" style="edgeStyle=orthogonalEdgeStyle;rounded=0;orthogonalLoop=1;jettySize=auto;html=1;entryX=0.124;entryY=0.219;entryDx=0;entryDy=0;entryPerimeter=0;" parent="1" source="G1gDlCIY-DG2FSS1MBPs-52" target="G1gDlCIY-DG2FSS1MBPs-54" edge="1">
          <mxGeometry relative="1" as="geometry">
            <Array as="points">
              <mxPoint x="115" y="160"/>
              <mxPoint x="286" y="160"/>
            </Array>
          </mxGeometry>
        </mxCell>
        <mxCell id="G1gDlCIY-DG2FSS1MBPs-81" style="edgeStyle=orthogonalEdgeStyle;rounded=0;orthogonalLoop=1;jettySize=auto;html=1;entryX=0.5;entryY=0;entryDx=0;entryDy=0;" parent="1" source="G1gDlCIY-DG2FSS1MBPs-52" edge="1">
          <mxGeometry relative="1" as="geometry">
            <mxPoint x="840" as="targetPoint"/>
            <Array as="points">
              <mxPoint x="115" y="-100"/>
              <mxPoint x="840" y="-100"/>
            </Array>
          </mxGeometry>
        </mxCell>
        <mxCell id="G1gDlCIY-DG2FSS1MBPs-52" value="" style="strokeColor=#dddddd;shadow=1;strokeWidth=1;rounded=1;absoluteArcSize=1;arcSize=2;" parent="1" vertex="1">
          <mxGeometry x="50" y="50" width="130" height="60" as="geometry"/>
        </mxCell>
        <mxCell id="G1gDlCIY-DG2FSS1MBPs-53" value="&lt;font color=&quot;#000000&quot;&gt;GAE&lt;br&gt;営業用&lt;br&gt;管理画面&lt;br&gt;&lt;/font&gt;" style="dashed=0;connectable=0;html=1;fillColor=#5184F3;strokeColor=none;shape=mxgraph.gcp2.hexIcon;prIcon=app_engine;part=1;labelPosition=right;verticalLabelPosition=middle;align=left;verticalAlign=middle;spacingLeft=5;fontColor=#999999;fontSize=12;" parent="G1gDlCIY-DG2FSS1MBPs-52" vertex="1">
          <mxGeometry y="0.5" width="44" height="39" relative="1" as="geometry">
            <mxPoint x="5" y="-19.5" as="offset"/>
          </mxGeometry>
        </mxCell>
        <mxCell id="G1gDlCIY-DG2FSS1MBPs-54" value="" style="shape=mxgraph.gcp.storage_databases.cloud_sql;html=1;fillColor=#4387FD;gradientColor=#4683EA;strokeColor=none;verticalLabelPosition=bottom;verticalAlign=top;align=center;" parent="1" vertex="1">
          <mxGeometry x="270" y="283.25" width="129" height="113" as="geometry"/>
        </mxCell>
        <mxCell id="G1gDlCIY-DG2FSS1MBPs-55" value="CloudSQL" style="text;html=1;align=center;verticalAlign=middle;resizable=0;points=[];autosize=1;" parent="1" vertex="1">
          <mxGeometry x="300" y="400" width="70" height="20" as="geometry"/>
        </mxCell>
        <mxCell id="G1gDlCIY-DG2FSS1MBPs-89" style="edgeStyle=orthogonalEdgeStyle;rounded=0;orthogonalLoop=1;jettySize=auto;html=1;entryX=0.175;entryY=0.5;entryDx=0;entryDy=0;entryPerimeter=0;" parent="1" source="G1gDlCIY-DG2FSS1MBPs-58" target="G1gDlCIY-DG2FSS1MBPs-87" edge="1">
          <mxGeometry relative="1" as="geometry">
            <Array as="points">
              <mxPoint x="610" y="37"/>
              <mxPoint x="610" y="37"/>
            </Array>
          </mxGeometry>
        </mxCell>
        <mxCell id="G1gDlCIY-DG2FSS1MBPs-58" value="" style="strokeColor=#dddddd;shadow=1;strokeWidth=1;rounded=1;absoluteArcSize=1;arcSize=2;" parent="1" vertex="1">
          <mxGeometry x="415" width="130" height="60" as="geometry"/>
        </mxCell>
        <mxCell id="G1gDlCIY-DG2FSS1MBPs-59" value="&lt;font color=&quot;#000000&quot;&gt;GAE&lt;br&gt;クロール処理&lt;br&gt;管理&lt;br&gt;&lt;/font&gt;" style="dashed=0;connectable=0;html=1;fillColor=#5184F3;strokeColor=none;shape=mxgraph.gcp2.hexIcon;prIcon=app_engine;part=1;labelPosition=right;verticalLabelPosition=middle;align=left;verticalAlign=middle;spacingLeft=5;fontColor=#999999;fontSize=12;" parent="G1gDlCIY-DG2FSS1MBPs-58" vertex="1">
          <mxGeometry y="0.5" width="44" height="39" relative="1" as="geometry">
            <mxPoint x="5" y="-19.5" as="offset"/>
          </mxGeometry>
        </mxCell>
        <mxCell id="G1gDlCIY-DG2FSS1MBPs-60" value="" style="strokeColor=#dddddd;shadow=1;strokeWidth=1;rounded=1;absoluteArcSize=1;arcSize=2;" parent="1" vertex="1">
          <mxGeometry x="415" y="-60" width="130" height="60" as="geometry"/>
        </mxCell>
        <mxCell id="G1gDlCIY-DG2FSS1MBPs-61" value="&lt;font color=&quot;#000000&quot;&gt;GAE cron&lt;br&gt;1日1回起動&lt;br&gt;&lt;/font&gt;" style="dashed=0;connectable=0;html=1;fillColor=#5184F3;strokeColor=none;shape=mxgraph.gcp2.hexIcon;prIcon=app_engine;part=1;labelPosition=right;verticalLabelPosition=middle;align=left;verticalAlign=middle;spacingLeft=5;fontColor=#999999;fontSize=12;" parent="G1gDlCIY-DG2FSS1MBPs-60" vertex="1">
          <mxGeometry y="0.5" width="44" height="39" relative="1" as="geometry">
            <mxPoint x="5" y="-19.5" as="offset"/>
          </mxGeometry>
        </mxCell>
        <mxCell id="G1gDlCIY-DG2FSS1MBPs-62" value="" style="strokeColor=#dddddd;shadow=1;strokeWidth=1;rounded=1;absoluteArcSize=1;arcSize=2;" parent="1" vertex="1">
          <mxGeometry x="398" y="220.5" width="175" height="60" as="geometry"/>
        </mxCell>
        <mxCell id="G1gDlCIY-DG2FSS1MBPs-63" value="&lt;font color=&quot;#000000&quot;&gt;Cloud Pub/Sub&lt;br&gt;クロール対象の&lt;br&gt;URLをキュー管理&lt;br&gt;&lt;/font&gt;" style="dashed=0;connectable=0;html=1;fillColor=#5184F3;strokeColor=none;shape=mxgraph.gcp2.hexIcon;prIcon=cloud_pubsub;part=1;labelPosition=right;verticalLabelPosition=middle;align=left;verticalAlign=middle;spacingLeft=5;fontColor=#999999;fontSize=12;" parent="G1gDlCIY-DG2FSS1MBPs-62" vertex="1">
          <mxGeometry y="0.5" width="44" height="39" relative="1" as="geometry">
            <mxPoint x="5" y="-19.5" as="offset"/>
          </mxGeometry>
        </mxCell>
        <mxCell id="G1gDlCIY-DG2FSS1MBPs-70" value="手動クロール実行命令" style="text;html=1;align=center;verticalAlign=middle;resizable=0;points=[];autosize=1;" parent="1" vertex="1">
          <mxGeometry x="130" y="10" width="140" height="20" as="geometry"/>
        </mxCell>
        <mxCell id="G1gDlCIY-DG2FSS1MBPs-71" value="キューのURLと一致するか&lt;br&gt;どうかの判定に使う" style="text;html=1;align=center;verticalAlign=middle;resizable=0;points=[];autosize=1;" parent="1" vertex="1">
          <mxGeometry x="463" y="372" width="160" height="30" as="geometry"/>
        </mxCell>
        <mxCell id="G1gDlCIY-DG2FSS1MBPs-73" value="cronからの実行時、&lt;br&gt;昨日の実行結果が入っているので&lt;br&gt;削除する" style="text;html=1;align=center;verticalAlign=middle;resizable=0;points=[];autosize=1;" parent="1" vertex="1">
          <mxGeometry x="585" y="-10" width="200" height="50" as="geometry"/>
        </mxCell>
        <mxCell id="G1gDlCIY-DG2FSS1MBPs-82" value="上限まで達していた場合、&lt;br&gt;強制終了として警告表示する" style="text;html=1;align=center;verticalAlign=middle;resizable=0;points=[];autosize=1;" parent="1" vertex="1">
          <mxGeometry x="154" y="-90" width="170" height="30" as="geometry"/>
        </mxCell>
        <mxCell id="G1gDlCIY-DG2FSS1MBPs-83" value="enqueue&lt;br&gt;tasks" style="text;html=1;align=center;verticalAlign=middle;resizable=0;points=[];autosize=1;" parent="1" vertex="1">
          <mxGeometry x="477" y="125" width="60" height="30" as="geometry"/>
        </mxCell>
        <mxCell id="G1gDlCIY-DG2FSS1MBPs-84" value="pull&lt;br&gt;tasks" style="text;html=1;align=center;verticalAlign=middle;resizable=0;points=[];autosize=1;" parent="1" vertex="1">
          <mxGeometry x="582" y="213" width="40" height="30" as="geometry"/>
        </mxCell>
        <mxCell id="G1gDlCIY-DG2FSS1MBPs-87" value="" style="html=1;fillColor=#5184F3;strokeColor=none;verticalAlign=top;labelPosition=center;verticalLabelPosition=bottom;align=center;spacingTop=-6;fontSize=11;fontStyle=1;fontColor=#999999;shape=mxgraph.gcp2.hexIcon;prIcon=cloud_memorystore" parent="1" vertex="1">
          <mxGeometry x="777.5" y="-20" width="125" height="114.75" as="geometry"/>
        </mxCell>
        <mxCell id="G1gDlCIY-DG2FSS1MBPs-90" value="Cloud&lt;br&gt;Memory&lt;br&gt;Store" style="text;html=1;align=center;verticalAlign=middle;resizable=0;points=[];autosize=1;" parent="1" vertex="1">
          <mxGeometry x="881" y="12.38" width="60" height="50" as="geometry"/>
        </mxCell>
        <mxCell id="G1gDlCIY-DG2FSS1MBPs-91" value="" style="strokeColor=#dddddd;shadow=1;strokeWidth=1;rounded=1;absoluteArcSize=1;arcSize=2;" parent="1" vertex="1">
          <mxGeometry x="772.5" y="160.5" width="130" height="60" as="geometry"/>
        </mxCell>
        <mxCell id="G1gDlCIY-DG2FSS1MBPs-92" value="&lt;font color=&quot;#000000&quot;&gt;GAE&lt;br&gt;クローラー1&lt;br&gt;&lt;/font&gt;" style="dashed=0;connectable=0;html=1;fillColor=#5184F3;strokeColor=none;shape=mxgraph.gcp2.hexIcon;prIcon=app_engine;part=1;labelPosition=right;verticalLabelPosition=middle;align=left;verticalAlign=middle;spacingLeft=5;fontColor=#999999;fontSize=12;" parent="G1gDlCIY-DG2FSS1MBPs-91" vertex="1">
          <mxGeometry y="0.5" width="44" height="39" relative="1" as="geometry">
            <mxPoint x="5" y="-19.5" as="offset"/>
          </mxGeometry>
        </mxCell>
        <mxCell id="G1gDlCIY-DG2FSS1MBPs-93" value="" style="strokeColor=#dddddd;shadow=1;strokeWidth=1;rounded=1;absoluteArcSize=1;arcSize=2;" parent="1" vertex="1">
          <mxGeometry x="772.5" y="280.5" width="130" height="60" as="geometry"/>
        </mxCell>
        <mxCell id="G1gDlCIY-DG2FSS1MBPs-94" value="&lt;span style=&quot;color: rgb(0 , 0 , 0)&quot;&gt;GAE&lt;/span&gt;&lt;br style=&quot;color: rgb(0 , 0 , 0)&quot;&gt;&lt;span style=&quot;color: rgb(0 , 0 , 0)&quot;&gt;クローラー3&lt;/span&gt;&lt;font color=&quot;#000000&quot;&gt;&lt;br&gt;&lt;/font&gt;" style="dashed=0;connectable=0;html=1;fillColor=#5184F3;strokeColor=none;shape=mxgraph.gcp2.hexIcon;prIcon=app_engine;part=1;labelPosition=right;verticalLabelPosition=middle;align=left;verticalAlign=middle;spacingLeft=5;fontColor=#999999;fontSize=12;" parent="G1gDlCIY-DG2FSS1MBPs-93" vertex="1">
          <mxGeometry y="0.5" width="44" height="39" relative="1" as="geometry">
            <mxPoint x="5" y="-19.5" as="offset"/>
          </mxGeometry>
        </mxCell>
        <mxCell id="G1gDlCIY-DG2FSS1MBPs-95" value="" style="strokeColor=#dddddd;shadow=1;strokeWidth=1;rounded=1;absoluteArcSize=1;arcSize=2;" parent="1" vertex="1">
          <mxGeometry x="772.5" y="220.5" width="130" height="60" as="geometry"/>
        </mxCell>
        <mxCell id="G1gDlCIY-DG2FSS1MBPs-96" value="&lt;span style=&quot;color: rgb(0 , 0 , 0)&quot;&gt;GAE&lt;/span&gt;&lt;br style=&quot;color: rgb(0 , 0 , 0)&quot;&gt;&lt;span style=&quot;color: rgb(0 , 0 , 0)&quot;&gt;クローラー2&lt;/span&gt;&lt;font color=&quot;#000000&quot;&gt;&lt;br&gt;&lt;/font&gt;" style="dashed=0;connectable=0;html=1;fillColor=#5184F3;strokeColor=none;shape=mxgraph.gcp2.hexIcon;prIcon=app_engine;part=1;labelPosition=right;verticalLabelPosition=middle;align=left;verticalAlign=middle;spacingLeft=5;fontColor=#999999;fontSize=12;" parent="G1gDlCIY-DG2FSS1MBPs-95" vertex="1">
          <mxGeometry y="0.5" width="44" height="39" relative="1" as="geometry">
            <mxPoint x="5" y="-19.5" as="offset"/>
          </mxGeometry>
        </mxCell>
        <mxCell id="G1gDlCIY-DG2FSS1MBPs-101" style="edgeStyle=orthogonalEdgeStyle;rounded=0;orthogonalLoop=1;jettySize=auto;html=1;entryX=0.5;entryY=0.84;entryDx=0;entryDy=0;entryPerimeter=0;" parent="1" source="G1gDlCIY-DG2FSS1MBPs-97" target="G1gDlCIY-DG2FSS1MBPs-99" edge="1">
          <mxGeometry relative="1" as="geometry"/>
        </mxCell>
        <mxCell id="G1gDlCIY-DG2FSS1MBPs-97" value="" style="strokeColor=#dddddd;shadow=1;strokeWidth=1;rounded=1;absoluteArcSize=1;arcSize=2;" parent="1" vertex="1">
          <mxGeometry x="1085" y="220.5" width="150" height="60" as="geometry"/>
        </mxCell>
        <mxCell id="G1gDlCIY-DG2FSS1MBPs-98" value="&lt;font color=&quot;#000000&quot;&gt;GCE&lt;br&gt;プロキシサーバ&lt;br&gt;&lt;/font&gt;" style="dashed=0;connectable=0;html=1;fillColor=#5184F3;strokeColor=none;shape=mxgraph.gcp2.hexIcon;prIcon=compute_engine;part=1;labelPosition=right;verticalLabelPosition=middle;align=left;verticalAlign=middle;spacingLeft=5;fontColor=#999999;fontSize=12;" parent="G1gDlCIY-DG2FSS1MBPs-97" vertex="1">
          <mxGeometry y="0.5" width="44" height="39" relative="1" as="geometry">
            <mxPoint x="5" y="-19.5" as="offset"/>
          </mxGeometry>
        </mxCell>
        <mxCell id="G1gDlCIY-DG2FSS1MBPs-102" style="edgeStyle=orthogonalEdgeStyle;rounded=0;orthogonalLoop=1;jettySize=auto;html=1;entryX=0.55;entryY=0.95;entryDx=0;entryDy=0;entryPerimeter=0;" parent="1" source="G1gDlCIY-DG2FSS1MBPs-99" target="G1gDlCIY-DG2FSS1MBPs-9" edge="1">
          <mxGeometry relative="1" as="geometry"/>
        </mxCell>
        <mxCell id="G1gDlCIY-DG2FSS1MBPs-99" value="" style="html=1;fillColor=#5184F3;strokeColor=none;verticalAlign=top;labelPosition=center;verticalLabelPosition=bottom;align=center;spacingTop=-6;fontSize=11;fontStyle=1;fontColor=#999999;shape=mxgraph.gcp2.hexIcon;prIcon=cloud_nat" parent="1" vertex="1">
          <mxGeometry x="1082" y="40" width="153" height="128.5" as="geometry"/>
        </mxCell>
        <mxCell id="G1gDlCIY-DG2FSS1MBPs-100" value="Cloud&lt;br&gt;NAT" style="text;html=1;align=center;verticalAlign=middle;resizable=0;points=[];autosize=1;" parent="1" vertex="1">
          <mxGeometry x="1200" y="92" width="50" height="30" as="geometry"/>
        </mxCell>
        <mxCell id="G1gDlCIY-DG2FSS1MBPs-105" value="" style="shape=mxgraph.gcp.big_data.bigquery;html=1;fillColor=#4387FD;gradientColor=#4683EA;strokeColor=none;verticalLabelPosition=bottom;verticalAlign=top;align=center;" parent="1" vertex="1">
          <mxGeometry x="500" y="450.5" width="129" height="113" as="geometry"/>
        </mxCell>
        <mxCell id="G1gDlCIY-DG2FSS1MBPs-106" value="BigQuery" style="text;html=1;align=center;verticalAlign=middle;resizable=0;points=[];autosize=1;" parent="1" vertex="1">
          <mxGeometry x="529.5" y="569" width="70" height="20" as="geometry"/>
        </mxCell>
        <mxCell id="G1gDlCIY-DG2FSS1MBPs-107" value="" style="shape=mxgraph.gcp.big_data.data_studio;html=1;fillColor=#4387FD;gradientColor=#4683EA;strokeColor=none;verticalLabelPosition=bottom;verticalAlign=top;align=center;" parent="1" vertex="1">
          <mxGeometry x="171" y="459" width="129" height="113" as="geometry"/>
        </mxCell>
        <mxCell id="G1gDlCIY-DG2FSS1MBPs-108" value="DataStudio" style="text;html=1;align=center;verticalAlign=middle;resizable=0;points=[];autosize=1;" parent="1" vertex="1">
          <mxGeometry x="204" y="574" width="70" height="20" as="geometry"/>
        </mxCell>
      </root>
    </mxGraphModel>
  </diagram>
</mxfile>
